<svg id="组件_5_1" data-name="组件 5 – 1" xmlns="http://www.w3.org/2000/svg" xmlns:xlink="http://www.w3.org/1999/xlink" width="723.373" height="40.697" viewBox="0 0 723.373 40.697">
  <defs>
    <clipPath id="clip-path">
      <rect id="矩形_11131" data-name="矩形 11131" width="201.732" height="40.344" fill="#fff"/>
    </clipPath>
  </defs>
  <text id="语言科学研究院" transform="translate(226.198 21.889)" fill="#fff" font-size="22" font-family="SourceHanSansCN-Bold, Source Han Sans CN" font-weight="700"><tspan x="0" y="0">语言科学研究院</tspan></text>
  <text id="国家语委科研基地_中国外语战略研究中心" data-name="国家语委科研基地  中国外语战略研究中心" transform="translate(409.373 20.697)" fill="#fff" font-size="17" font-family="SourceHanSansCN-Bold, Source Han Sans CN" font-weight="700"><tspan x="0" y="0" xml:space="preserve">国家语委科研基地  中国外语战略研究中心</tspan></text>
  <text id="Institute_of_Language_Sciences" data-name="Institute of Language Sciences" transform="translate(226.373 37.697)" fill="#fff" font-size="10" font-family="SourceHanSerifCN-Regular, Source Han Serif CN"><tspan x="0" y="0">Institute of Language Sciences</tspan></text>
  <text id="China_Center_for_Language_Planning_and_Policy_Studies_National_Language_Commission" data-name="China Center for Language Planning and Policy Studies , National Language Commission" transform="translate(409.373 36.697)" fill="#fff" font-size="7" font-family="SourceHanSerifCN-Regular, Source Han Serif CN"><tspan x="0" y="0">China Center for Language Planning and Policy Studies , National Language Commission</tspan></text>
  <line id="直线_18" data-name="直线 18" y2="30.821" transform="translate(216.284 5.483)" fill="none" stroke="#fff" stroke-width="1"/>
  <line id="直线_19" data-name="直线 19" y2="30.821" transform="translate(396.117 5.483)" fill="none" stroke="#fff" stroke-width="1"/>
  <g id="组_7666" data-name="组 7666">
    <g id="组_7665" data-name="组 7665" transform="translate(0 0)" clip-path="url(#clip-path)">
      <path id="路径_62485" data-name="路径 62485" d="M20.172,0A20.172,20.172,0,1,0,40.348,20.172,20.2,20.2,0,0,0,20.172,0M33.08,33.06a18.185,18.185,0,1,1,5.355-12.888A18.221,18.221,0,0,1,33.08,33.06" transform="translate(0 0)" fill="#fff"/>
      <path id="路径_62486" data-name="路径 62486" d="M21.093,15.155a.21.21,0,0,0-.083-.059.409.409,0,0,0-.131-.036.92.92,0,0,0-.147-.011,6.246,6.246,0,0,0-.646.058,5.115,5.115,0,0,1-.606.06,1.2,1.2,0,0,1-.262-.022.2.2,0,0,1-.078-.03l-.014-.014a.113.113,0,0,1-.015-.049c0-.028,0-.069,0-.12V13.591l0,0a.6.6,0,0,1,.087-.035c.073-.019.174-.037.284-.053.172-.023.372-.046.558-.088a1.372,1.372,0,0,0,.265-.089.659.659,0,0,0,.224-.149.6.6,0,0,0,.179-.422.631.631,0,0,0-.165-.419.522.522,0,0,0-.161-.134.438.438,0,0,0-.2-.056.747.747,0,0,0-.142.016,5.7,5.7,0,0,0-.637.176c-.058.018-.109.036-.159.052a5.637,5.637,0,0,0,.08-.858,1.611,1.611,0,0,0-.076-.551l0-.006,0,0a.861.861,0,0,0-.452-.408,1.458,1.458,0,0,0-.561-.108,1.131,1.131,0,0,0-.354.051.454.454,0,0,0-.139.073.271.271,0,0,0-.053.066.22.22,0,0,0-.027.1.907.907,0,0,0,.038.23c.05.2.1.435.127.5.078.512.062,2.895.062,3.174a1.49,1.49,0,0,1-.082.486.589.589,0,0,1-.085.157.12.12,0,0,1-.035.027l-.016.007c-.071,0-.172.009-.3.021-.393.036-1.035.109-1.438.109-.127,0-.223,0-.3,0a1.414,1.414,0,0,0-.152.016.3.3,0,0,0-.1.035.17.17,0,0,0-.064.06.2.2,0,0,0-.043.108.673.673,0,0,0,0,.093v.052a1.337,1.337,0,0,0,.031.251,1.294,1.294,0,0,0,.167.416.67.67,0,0,0,.157.168.392.392,0,0,0,.232.078,2.438,2.438,0,0,0,.358-.041c.222-.031.488-.08.728-.12.119-.022.233-.04.332-.052a1.871,1.871,0,0,1,.22-.019c.084,0,.2-.012.351-.022.455-.036,1.221-.109,2.14-.109a2.178,2.178,0,0,0,.593-.072.79.79,0,0,0,.48-.329.778.778,0,0,0,.1-.417c0-.11-.014-.2-.014-.254a.2.2,0,0,0-.054-.141" transform="translate(-2.345 -1.605)" fill="#fff"/>
      <path id="路径_62487" data-name="路径 62487" d="M26.783,17.678" transform="translate(-4.113 -2.715)" fill="#fff"/>
      <path id="路径_62488" data-name="路径 62488" d="M27.729,13.222a.536.536,0,0,0-.335-.126h-.638a.237.237,0,0,1,.029-.045,1.684,1.684,0,0,1,.165-.2.529.529,0,0,0,.116-.2c.039-.109.073-.232.109-.341a.716.716,0,0,1,.125-.243,1.7,1.7,0,0,0,.252-.327.744.744,0,0,0,.115-.372.259.259,0,0,0-.038-.135.447.447,0,0,0-.151-.15,2.153,2.153,0,0,0-.262-.145c-.042-.018-.077-.036-.106-.051a.3.3,0,0,0-.03-.02l-.009-.007h0a.421.421,0,0,0-.166-.1.575.575,0,0,0-.209-.041.323.323,0,0,0-.206.064.27.27,0,0,0-.1.228,2.569,2.569,0,0,1-.26,1.148c-.127.251-.259.573-.381.877s-.229.587-.3.752v0a.677.677,0,0,1-.136.206.584.584,0,0,1-.056.051.206.206,0,0,0-.025.027.169.169,0,0,0-.023.027.147.147,0,0,0-.019.074.136.136,0,0,0,.012.053.146.146,0,0,0,.113.084.385.385,0,0,0,.052,0h.058a.6.6,0,0,0,.212-.038,1.5,1.5,0,0,1,.624-.157.728.728,0,0,1,.174.018.252.252,0,0,1,.073.024.09.09,0,0,1,.042.045.238.238,0,0,1,.02.112,1.694,1.694,0,0,1-.074.411c-.065.232-.116.456-.167.609a.73.73,0,0,1-.075.168c-.01.008-.015.016-.019.019a.082.082,0,0,1-.018-.01.261.261,0,0,1-.063-.056,3.063,3.063,0,0,1-.309-.375c-.037-.05-.07-.092-.1-.131a.425.425,0,0,0-.062-.052.175.175,0,0,0-.1-.034.221.221,0,0,0-.074.016.2.2,0,0,0-.053.041.192.192,0,0,0-.044.082.285.285,0,0,0-.008.062.722.722,0,0,0,.017.135c.031.168.1.4.168.623.032.113.063.219.085.311a1.045,1.045,0,0,1,.032.2.341.341,0,0,0,.057.186.412.412,0,0,0,.2.157.69.69,0,0,0,.242.041.675.675,0,0,0,.182-.024.34.34,0,0,0,.161-.088c.037-.04.1-.108.172-.207.114-.145.262-.346.4-.56a3.189,3.189,0,0,0,.334-.65c.089-.258.184-.58.271-.851.044-.135.084-.256.119-.348.019-.047.035-.085.048-.113s.013-.025.016-.031l.006-.007h0a.2.2,0,0,0,.05-.088.238.238,0,0,0,.014-.089.432.432,0,0,0-.044-.19.683.683,0,0,0-.2-.252m.175.62h0" transform="translate(-3.868 -1.646)" fill="#fff"/>
      <path id="路径_62489" data-name="路径 62489" d="M31.8,13.447a1.366,1.366,0,0,0-.491-.415.856.856,0,0,0-.389-.085,1.607,1.607,0,0,0-.571.118,2.616,2.616,0,0,0-.259.118l-.075.045V12.182a1.211,1.211,0,0,1,.086-.4,1.252,1.252,0,0,0,.1-.446.394.394,0,0,0-.04-.164.715.715,0,0,0-.179-.225,1.58,1.58,0,0,0-.4-.249,1.116,1.116,0,0,0-.422-.1.5.5,0,0,0-.348.13.406.406,0,0,0-.133.295.35.35,0,0,0,.1.246l0,0v0a.86.86,0,0,1,.155.283,1.215,1.215,0,0,1,.051.177.743.743,0,0,1,.016.134v1.458c0,.1-.008.262-.017.46-.039.6-.113,1.525-.113,2.089a2.943,2.943,0,0,0,.018.356l.13-.018-.13.018a.712.712,0,0,0,.144.371.346.346,0,0,0,.132.087.392.392,0,0,0,.136.022,1.162,1.162,0,0,0,.141-.014.539.539,0,0,1,.1-.011.247.247,0,0,0,.141-.047.464.464,0,0,0,.139-.188,1.645,1.645,0,0,0,.095-.379,3.021,3.021,0,0,0,.03-.427c0-.192.018-.619.036-1.058s.036-.885.036-1.143v-.054l.086.039a1.525,1.525,0,0,1,.522.48,2.283,2.283,0,0,1,.314.572,1.12,1.12,0,0,0,.146.309.424.424,0,0,0,.126.125.315.315,0,0,0,.184.058.407.407,0,0,0,.245-.095,1.082,1.082,0,0,0,.226-.261.944.944,0,0,0,.164-.526,1.062,1.062,0,0,0-.228-.634" transform="translate(-4.405 -1.627)" fill="#fff"/>
      <path id="路径_62490" data-name="路径 62490" d="M17.977,33.666h.093V29.733h-.543l-.011.078a.714.714,0,0,1-.258.493.99.99,0,0,1-.61.163l-.09,0-.1,0v.555h.927v2.65Z" transform="translate(-2.528 -4.566)" fill="#fff"/>
      <path id="路径_62491" data-name="路径 62491" d="M21.128,33.2h-.034l-.006,0a.582.582,0,0,1-.406-.126.6.6,0,0,1-.169-.4l-.009-.077h-.66l.008.091a1.047,1.047,0,0,0,.347.76,1.444,1.444,0,0,0,.885.283h.005a1.311,1.311,0,0,0,1.1-.582,3.065,3.065,0,0,0,.414-1.589v0a2.228,2.228,0,0,0-.378-1.339,1.312,1.312,0,0,0-1.072-.48h-.006a1.4,1.4,0,0,0-.971.384,1.486,1.486,0,0,0-.367.993v.006a1.2,1.2,0,0,0,1.3,1.3l0,0,0,0a1.213,1.213,0,0,0,.761-.251,2.149,2.149,0,0,1-.255.729.563.563,0,0,1-.489.307m.533-1.57a.591.591,0,0,1-.468.19h-.041a.658.658,0,0,1-.5-.163.713.713,0,0,1-.164-.518V31.1a.818.818,0,0,1,.178-.549.67.67,0,0,1,.484-.2.689.689,0,0,1,.492.18.8.8,0,0,1,.189.526.917.917,0,0,1-.172.574" transform="translate(-3.042 -4.566)" fill="#fff"/>
      <path id="路径_62492" data-name="路径 62492" d="M25.168,33.682h.664v-.9h.582v-.561h-.582V29.842h-.555l-1.809,2.381v.563h1.7Zm-.979-1.458.979-1.331v1.331Z" transform="translate(-3.604 -4.583)" fill="#fff"/>
      <path id="路径_62493" data-name="路径 62493" d="M28.619,29.734H28.61a1.4,1.4,0,0,0-.968.384,1.5,1.5,0,0,0-.369.993v.006a1.207,1.207,0,0,0,1.3,1.3l.006,0,0,0a1.212,1.212,0,0,0,.76-.251,2.145,2.145,0,0,1-.257.729.561.561,0,0,1-.488.307H28.56l0,0h-.006a.568.568,0,0,1-.4-.126.594.594,0,0,1-.173-.4l-.009-.077h-.656l0,.091a1.058,1.058,0,0,0,.349.76,1.441,1.441,0,0,0,.885.283h.008a1.312,1.312,0,0,0,1.1-.582,3.073,3.073,0,0,0,.414-1.589v0a2.251,2.251,0,0,0-.378-1.339,1.312,1.312,0,0,0-1.072-.48m.505,1.894a.589.589,0,0,1-.467.19h-.038a.669.669,0,0,1-.5-.163.713.713,0,0,1-.165-.518l0-.04a.81.81,0,0,1,.174-.549.672.672,0,0,1,.485-.2.683.683,0,0,1,.491.18.783.783,0,0,1,.19.526.886.886,0,0,1-.174.574" transform="translate(-4.188 -4.566)" fill="#fff"/>
      <path id="路径_62494" data-name="路径 62494" d="M12.1,24.927a2.935,2.935,0,0,0-1.586-.374c-1.323.281-.6,1.174-.6,1.174.714.6,2.007.007,2.007.007a1.774,1.774,0,0,0,1.975-.047A1.369,1.369,0,0,0,15,23.575a5.379,5.379,0,0,0-2.4-1.791.543.543,0,0,1,0-1.049c.411-.038.33.16.871.294a.892.892,0,0,0,1.018-.61c-.019-.163-.255-.089-.359-.046.047-.021.084-.038-.113.046a.941.941,0,0,1-.7-.111c-.663-.417-.807-.273-.807-.273-2.316.746-2.684,2.219-2.684,2.219a1.251,1.251,0,0,0,1.1,1.424c2.087.317,2.165.826,2.165.826.56.851-.987.422-.987.422m-.6.613a.915.915,0,0,1-.929.159c-.941-.435-.127-.64-.127-.64a1.762,1.762,0,0,1,1.056.435Zm1.033-2.533s-.644-.155-.916-.258-1.293-.62-.286-1.433l.086-.029s-.245.871.906,1.18,3.285,1.788,1.885,2.748c0,0,.276-1.516-1.675-2.208" transform="translate(-1.492 -3.073)" fill="#fff"/>
      <path id="路径_62495" data-name="路径 62495" d="M26.414,24.927a2.933,2.933,0,0,0-1.585-.374c-1.324.281-.607,1.174-.607,1.174.714.6,2.009.007,2.009.007a1.77,1.77,0,0,0,1.973-.047,1.37,1.37,0,0,0,1.107-2.111,5.372,5.372,0,0,0-2.406-1.791.543.543,0,0,1,0-1.049c.412-.038.33.16.872.294a.892.892,0,0,0,1.019-.61c-.021-.163-.256-.089-.36-.046.047-.021.084-.038-.112.046a.948.948,0,0,1-.7-.111c-.661-.417-.808-.273-.808-.273-2.311.746-2.682,2.219-2.682,2.219a1.254,1.254,0,0,0,1.1,1.424C27.324,24,27.4,24.5,27.4,24.5c.561.851-.986.422-.986.422m-.6.613a.912.912,0,0,1-.928.159c-.945-.435-.128-.64-.128-.64a1.764,1.764,0,0,1,1.056.435Zm1.034-2.533s-.644-.155-.919-.258-1.293-.62-.284-1.433l.088-.029s-.248.871.906,1.18,3.282,1.788,1.883,2.748c0,0,.275-1.516-1.673-2.208" transform="translate(-3.69 -3.073)" fill="#fff"/>
      <path id="路径_62496" data-name="路径 62496" d="M20.759,22.738a4.742,4.742,0,0,1,.062,2.134c-.151.286-.488.1-.488.1a5.8,5.8,0,0,0,0-2.41c.091-2.031.592-2.256.592-2.256.317-.409-.071-.274-.071-.274a2.408,2.408,0,0,1-1.767.234c-2.2-.654-2.281,1.247-2.281,1.247l.008.046c.113.135.186-.038.186-.038a1.912,1.912,0,0,1,2.169-.379,1.662,1.662,0,0,0-.3,1.064,2.349,2.349,0,0,0-1.7.428c-.556.4-.269.775-.269.775a4.228,4.228,0,0,1,1.494-.378c1.259-.039.652,1.6.652,1.6-1.07-.118-1.978.146-2.277.839-.28.642.06.51.06.51a2.193,2.193,0,0,1,1.973-.583,8.7,8.7,0,0,0,2.185.6.152.152,0,0,0,.033,0c1.541.125.645-3.328.645-3.328-.225-2.043.643-2.421.643-2.421.307-.255-.141-.233-.141-.233-1.943,0-1.414,2.713-1.414,2.713" transform="translate(-2.559 -3.074)" fill="#fff"/>
      <path id="路径_62497" data-name="路径 62497" d="M35.055,20.33s-.011-.044-.113-.061c0,0-1.444.1-1.8-.322a2.818,2.818,0,0,1-1.651.6h0l-.056-.008s-.17.151-.011.279a1.673,1.673,0,0,0,1.7.109v1.058s-2.284,1.133-1.747,2.767c0,0,1.143,2.506,4.3.61,0,0,.365.636.556.695s1.008.015.741-.646a1.278,1.278,0,0,1-.487-.852V20.838s.7-.46.417-.806c0,0-.763.38-1.073.1a.255.255,0,0,0-.277.125,1.676,1.676,0,0,1-.26.459l-.626.385v-.3a.579.579,0,0,0,.384-.471M32.746,22.8a.637.637,0,0,1,.382-.2l0,.156v.857s-.015.91-.687.989c0,0-.633-.693.308-1.806m-.08,2.072a1.7,1.7,0,0,0,1.395-1.411v-1.4l.172-.111V25.3a2.364,2.364,0,0,1-1.567-.424m2.794-3.707.083.04v3.539a2.445,2.445,0,0,1-.873.466V21.67Zm-1.227.208-.147.091V20.9a1.144,1.144,0,0,0,.147,0Z" transform="translate(-4.807 -3.063)" fill="#fff"/>
      <path id="路径_62498" data-name="路径 62498" d="M38.306,23.327l-2.177,1.434a18.7,18.7,0,0,0,.34-1.942c2.27-1.9,1.974-3.364,1.974-3.364-.28-.207-1.346.956-1.845,1.525a13.4,13.4,0,0,0-.065-1.824c-.029-.184-.06-.362-.1-.543,1.514-2.349.705-3.554.705-3.554-.3.1-.961,1.643-1.1,1.962a15.945,15.945,0,0,0-.9-2.309,4.9,4.9,0,0,0,.063-3.6c-.519.39-.711,1.893-.755,2.318a16.825,16.825,0,0,0-1.29-1.866,5.116,5.116,0,0,0-.982-3.594c-.159-.261-.215,0-.215,0a7.133,7.133,0,0,0,.284,2.489l.025.067a19.005,19.005,0,0,0-1.534-1.481,4.227,4.227,0,0,0-1.563-2.911s-.237-.217-.222.182a4.923,4.923,0,0,0,.222,1.514,13.864,13.864,0,0,0-1.634-1,4.887,4.887,0,0,0-3.9-.941c-.493.034-.247.192-.247.192A6.068,6.068,0,0,0,27.05,7.688a18.865,18.865,0,0,1,1.9,1.046,3.843,3.843,0,0,0-2.174.32s-.207.135.181.3a6.221,6.221,0,0,0,3.3.3,15.068,15.068,0,0,1,1.479,1.319,3.962,3.962,0,0,0-2.707.341s-.139.058,0,.16c0,0,.765.752,3.653.567a13.805,13.805,0,0,1,1.232,1.832,6.027,6.027,0,0,0-3.023-.229s-.128.161.192.332A5.759,5.759,0,0,0,34.5,15.041a14.947,14.947,0,0,1,.876,2.6A5.246,5.246,0,0,0,32.8,16.7c-.387-.082-.284.161-.284.161a5.76,5.76,0,0,0,3.1,2.015,16.443,16.443,0,0,1,.19,2.515,9.16,9.16,0,0,0-2.615-1.984c-.265-.126-.217.113-.217.113a10.043,10.043,0,0,0,2.777,3.156c-.051.594-.115.938-.115.938-.1.428-.208.841-.329,1.238A4.759,4.759,0,0,0,33.19,23.1a4.5,4.5,0,0,0,1.692,3.007,16.541,16.541,0,0,1-.866,1.917l0,0s-.378-2.351-1.165-2.773a6.023,6.023,0,0,0,.447,4,14.926,14.926,0,0,1-1.127,1.5c-.374-3.293-.76-2.908-.76-2.908-.714.635-.169,3.17-.03,3.758a11.236,11.236,0,0,1-2.461,1.886l-1.091-1.922H21.309l-.719.644-.719-.644H13.356l-.08.14-1.012,1.785A11.079,11.079,0,0,1,9.794,31.6c.139-.588.685-3.123-.03-3.758,0,0-.383-.385-.761,2.908a14.67,14.67,0,0,1-1.123-1.5,6.045,6.045,0,0,0,.446-4c-.79.422-1.166,2.773-1.166,2.773l0,0a16.686,16.686,0,0,1-.867-1.917A4.492,4.492,0,0,0,7.983,23.1a4.762,4.762,0,0,0-2.117,1.756q-.18-.6-.328-1.238s-.065-.344-.117-.938A9.991,9.991,0,0,0,8.2,19.524s.047-.239-.216-.113a9.183,9.183,0,0,0-2.615,1.984,16.347,16.347,0,0,1,.19-2.515,5.766,5.766,0,0,0,3.1-2.015s.1-.243-.287-.161a5.241,5.241,0,0,0-2.571.94,15.024,15.024,0,0,1,.877-2.6A5.759,5.759,0,0,0,10.1,13.975c.319-.171.194-.332.194-.332a6.042,6.042,0,0,0-3.026.229A13.988,13.988,0,0,1,8.5,12.041c2.888.185,3.652-.567,3.652-.567.136-.1,0-.16,0-.16a3.962,3.962,0,0,0-2.706-.341,14.608,14.608,0,0,1,1.48-1.319,6.217,6.217,0,0,0,3.294-.3c.387-.163.181-.3.181-.3a3.84,3.84,0,0,0-2.174-.32,18.8,18.8,0,0,1,1.9-1.046,6.069,6.069,0,0,0,3.653-1.614s.245-.158-.245-.192a4.892,4.892,0,0,0-3.905.941,13.906,13.906,0,0,0-1.634,1,4.865,4.865,0,0,0,.223-1.514c.016-.4-.223-.182-.223-.182a4.252,4.252,0,0,0-1.562,2.911,19.574,19.574,0,0,0-1.532,1.481l.025-.067a7.165,7.165,0,0,0,.287-2.489s-.059-.261-.218,0a5.111,5.111,0,0,0-.982,3.594,16.943,16.943,0,0,0-1.291,1.866C6.671,13,6.479,11.5,5.961,11.11a4.915,4.915,0,0,0,.064,3.6,15.658,15.658,0,0,0-.9,2.309c-.135-.319-.791-1.86-1.1-1.962,0,0-.809,1.205.7,3.554-.032.18-.065.359-.094.543a13.712,13.712,0,0,0-.067,1.824c-.5-.57-1.567-1.733-1.844-1.525,0,0-.3,1.462,1.974,3.364a18.259,18.259,0,0,0,.34,1.942L2.866,23.327c.379,2.053,2.7,3.219,2.7,3.219a15.385,15.385,0,0,0,.682,1.618c-.449-.218-2.031-.949-2.481-.715a3.81,3.81,0,0,0,3.184,1.973A13.666,13.666,0,0,0,8.2,31.107l-.03-.014a6.056,6.056,0,0,0-2.626-.183s.446,1.1,3.828,1.393l0-.007A14.169,14.169,0,0,0,11.914,34.1l-.868,1.53h8.406l.019.016-1.742,1.74.555.552,1.77-1.769.535.479.539-.479L22.9,37.942l.554-.552-1.74-1.74.019-.016h8.4L29.265,34.1A14.088,14.088,0,0,0,31.8,32.3l0,.005c3.382-.3,3.828-1.393,3.828-1.393a6.069,6.069,0,0,0-2.628.183l-.03.014a13.769,13.769,0,0,0,1.244-1.684A3.807,3.807,0,0,0,37.4,27.45c-.449-.234-2.03.5-2.48.715a15.2,15.2,0,0,0,.681-1.618s2.323-1.166,2.7-3.219M13.674,32.111h5.985l.152.132.778.747.79-.754.14-.124h5.987l1.344,2.372H21.3l-.713.637-.712-.637H12.332Zm7.857,2.971-.942.9-.94-.9H11.992l.2-.347h7.593l.808.724.808-.724h7.594l.2.347Z" transform="translate(-0.417 -0.89)" fill="#fff"/>
      <path id="路径_62499" data-name="路径 62499" d="M64.075,38.908a.754.754,0,0,0-.689-.743.664.664,0,0,0-.72.737c0,.97,1.752.678,1.752,2.081a1.268,1.268,0,0,1-1.413,1.226,2.1,2.1,0,0,1-.929-.261c-.028-.3-.07-.59-.1-.89l.163-.036a.938.938,0,0,0,.906.929.666.666,0,0,0,.721-.665c0-1.036-1.719-.713-1.719-2.123a1.174,1.174,0,0,1,1.289-1.21c.163,0,.661.064.843.089a6.815,6.815,0,0,0,.058.835Z" transform="translate(-9.518 -5.829)" fill="#fff"/>
      <path id="路径_62500" data-name="路径 62500" d="M66.541,41.629c0,.317.243.335.455.335h.11v.174c-.257,0-.631-.024-.946-.024-.3,0-.652.024-.885.024v-.174h.083c.209,0,.431-.03.431-.335V38.567c0-.3-.222-.333-.431-.333h-.083v-.174c.233,0,.585.024.885.024.316,0,.689-.024.946-.024v.174H67c-.212,0-.455.019-.455.333v1.281h2.12V38.567c0-.315-.247-.333-.456-.333h-.113v-.174c.26,0,.634.024.948.024s.648-.024.882-.024v.174h-.081c-.212,0-.431.03-.431.333v3.062c0,.3.219.335.431.335h.081v.174c-.234,0-.582-.024-.882-.024s-.688.024-.948.024v-.174h.113c.209,0,.456-.019.456-.335V40.175h-2.12Z" transform="translate(-10.024 -5.845)" fill="#fff"/>
      <path id="路径_62501" data-name="路径 62501" d="M71.946,41.277a2.2,2.2,0,0,0-.129.455c0,.176.245.207.437.207h.064v.174c-.234-.013-.472-.024-.706-.024-.211,0-.422.011-.631.024v-.174h.035a.526.526,0,0,0,.505-.381l.938-2.684a5.089,5.089,0,0,0,.216-.723,3.115,3.115,0,0,0,.532-.252.136.136,0,0,1,.045-.012.045.045,0,0,1,.044.017c.016.047.034.1.052.147l1.074,3.056c.07.206.14.42.217.6a.373.373,0,0,0,.385.235h.036v.174c-.267-.013-.526-.024-.807-.024s-.581.011-.878.024v-.174h.063c.135,0,.365-.026.365-.171a1.883,1.883,0,0,0-.118-.42l-.229-.678H72.133Zm.852-2.589h-.012l-.543,1.654h1.093Z" transform="translate(-10.9 -5.818)" fill="#fff"/>
      <path id="路径_62502" data-name="路径 62502" d="M79.771,40.989l.014-.012V38.784a.483.483,0,0,0-.51-.549h-.127V38.06c.272,0,.541.023.817.023.24,0,.48-.023.718-.023v.174H80.6c-.245,0-.521.047-.521.742v2.66a3.759,3.759,0,0,0,.034.59h-.222l-3.01-3.354v2.406c0,.51.1.686.551.686h.1v.174c-.251,0-.5-.023-.755-.023s-.531.023-.793.023v-.174h.081c.4,0,.524-.278.524-.742V38.762a.524.524,0,0,0-.531-.527H75.98V38.06c.222,0,.45.023.67.023.177,0,.346-.023.52-.023Z" transform="translate(-11.668 -5.845)" fill="#fff"/>
      <path id="路径_62503" data-name="路径 62503" d="M85.65,39.183a1.217,1.217,0,0,0-1.356-.97,1.545,1.545,0,0,0-1.558,1.746c0,.966.461,1.992,1.577,1.992a1.259,1.259,0,0,0,.65-.11V40.89c0-.239-.229-.3-.444-.3h-.078v-.177c.293.012.585.023.877.023.263,0,.521-.011.785-.023v.177h-.08c-.2,0-.316.091-.316.3v.888l.136.075v.107a5.808,5.808,0,0,1-1.63.251,2.109,2.109,0,0,1-2.3-2.192,2.141,2.141,0,0,1,2.34-2.063,3.377,3.377,0,0,1,.84.107,3.378,3.378,0,0,0,.663.111,5.45,5.45,0,0,0,.069,1Z" transform="translate(-12.58 -5.829)" fill="#fff"/>
      <path id="路径_62504" data-name="路径 62504" d="M88.4,41.629c0,.317.245.335.457.335h.111v.174c-.257,0-.631-.024-.946-.024-.3,0-.649.024-.883.024v-.174h.082c.21,0,.431-.03.431-.335V38.567c0-.3-.221-.333-.431-.333h-.082v-.174c.234,0,.584.024.883.024.316,0,.689-.024.946-.024v.174h-.111c-.212,0-.457.019-.457.333v1.281h2.122V38.567c0-.315-.245-.333-.458-.333h-.107v-.174c.257,0,.63.024.945.024.3,0,.65-.024.881-.024v.174H91.7c-.208,0-.431.03-.431.333v3.062c0,.3.223.335.431.335h.081v.174c-.231,0-.582-.024-.881-.024-.316,0-.688.024-.945.024v-.174h.107c.213,0,.458-.019.458-.335V40.175H88.4Z" transform="translate(-13.381 -5.845)" fill="#fff"/>
      <path id="路径_62505" data-name="路径 62505" d="M93.806,41.277a2.326,2.326,0,0,0-.13.455c0,.176.245.207.438.207h.065v.174c-.234-.013-.474-.024-.708-.024-.208,0-.422.011-.632.024v-.174h.039a.531.531,0,0,0,.505-.381l.936-2.684a4.781,4.781,0,0,0,.216-.723,3.1,3.1,0,0,0,.532-.252.111.111,0,0,1,.045-.012c.017,0,.031,0,.042.017.017.047.034.1.053.147l1.077,3.056c.068.206.139.42.214.6a.374.374,0,0,0,.386.235h.033v.174c-.259-.013-.525-.024-.8-.024s-.581.011-.877.024v-.174H95.3c.135,0,.364-.026.364-.171a1.948,1.948,0,0,0-.119-.42l-.228-.678H93.99Zm.852-2.589h-.012L94.1,40.342H95.2Z" transform="translate(-14.257 -5.818)" fill="#fff"/>
      <path id="路径_62506" data-name="路径 62506" d="M97.84,41.965h.081c.211,0,.434-.03.434-.335V38.567c0-.3-.223-.333-.434-.333H97.84V38.06c.229,0,.577.023.864.023s.643-.023.917-.023v.174h-.079c-.212,0-.434.03-.434.333V41.63c0,.3.222.335.434.335h.079v.174c-.278,0-.629-.023-.923-.023s-.63.023-.858.023Z" transform="translate(-15.025 -5.845)" fill="#fff"/>
      <path id="路径_62507" data-name="路径 62507" d="M102.058,41.965h.083c.21,0,.432-.03.432-.335V38.567c0-.3-.222-.333-.432-.333h-.083V38.06c.228,0,.58.023.866.023s.642-.023.918-.023v.174h-.082c-.211,0-.433.03-.433.333V41.63c0,.3.222.335.433.335h.082v.174c-.281,0-.63-.023-.924-.023s-.631.023-.859.023Z" transform="translate(-15.673 -5.845)" fill="#fff"/>
      <path id="路径_62508" data-name="路径 62508" d="M108.15,40.989l.014-.012V38.784a.483.483,0,0,0-.51-.549h-.129V38.06c.275,0,.544.023.819.023.239,0,.479-.023.718-.023v.174h-.087c-.245,0-.521.047-.521.742v2.66a3.861,3.861,0,0,0,.035.59h-.221l-3.01-3.354v2.406c0,.51.1.686.548.686h.1v.174c-.252,0-.5-.023-.756-.023s-.532.023-.795.023v-.174h.08c.4,0,.529-.278.529-.742V38.762a.526.526,0,0,0-.532-.527h-.076V38.06c.222,0,.449.023.673.023.174,0,.344-.023.52-.023Z" transform="translate(-16.026 -5.845)" fill="#fff"/>
      <path id="路径_62509" data-name="路径 62509" d="M110.82,38.32c-.438,0-.455.1-.544.531H110.1c.024-.164.056-.328.07-.5a3.3,3.3,0,0,0,.036-.5h.139c.047.174.193.168.351.168h3.016c.158,0,.3-.006.317-.181l.138.022c-.021.159-.045.317-.063.475s-.014.315-.014.474l-.174.063c-.012-.218-.041-.559-.433-.559h-.957v3.109c0,.45.2.5.485.5h.109v.174c-.226,0-.636-.024-.953-.024-.349,0-.758.024-.986.024v-.174h.112c.321,0,.484-.031.484-.493V38.32Z" transform="translate(-16.908 -5.812)" fill="#fff"/>
      <path id="路径_62510" data-name="路径 62510" d="M115.127,41.965h.084c.21,0,.432-.03.432-.335V38.567c0-.3-.222-.333-.432-.333h-.084V38.06c.357,0,.965.023,1.457.023s1.1-.023,1.495-.023c-.009.251-.005.636.015.893l-.179.047c-.028-.378-.1-.683-.712-.683h-.814v1.532h.7c.35,0,.424-.2.46-.514h.175c-.011.225-.018.456-.018.681s.007.445.018.667l-.175.036c-.036-.35-.051-.578-.455-.578h-.7V41.5c0,.378.342.378.714.378.7,0,1.012-.047,1.187-.712l.163.041c-.074.31-.146.62-.2.929-.375,0-1.046-.023-1.573-.023s-1.221.023-1.556.023Z" transform="translate(-17.68 -5.845)" fill="#fff"/>
      <path id="路径_62511" data-name="路径 62511" d="M119.9,38.679c0-.427-.235-.444-.416-.444h-.1V38.06c.188,0,.548.023.9.023s.632-.023.942-.023c.737,0,1.39.2,1.39,1.028a1.1,1.1,0,0,1-.81,1.028l1,1.5a.655.655,0,0,0,.565.354v.174c-.192,0-.381-.023-.572-.023s-.368.023-.55.023a16.226,16.226,0,0,1-1.217-1.9h-.386V41.5c0,.449.212.467.482.467h.1v.174c-.33,0-.673-.023-1-.023-.278,0-.554.023-.846.023v-.174h.1c.217,0,.416-.1.416-.317Zm.745,1.356h.288c.585,0,.9-.221.9-.912a.8.8,0,0,0-.855-.853c-.176,0-.25.018-.334.022Z" transform="translate(-18.332 -5.845)" fill="#fff"/>
      <path id="路径_62512" data-name="路径 62512" d="M128.092,40.989l.011-.012V38.784a.483.483,0,0,0-.51-.549h-.128V38.06c.274,0,.544.023.818.023.24,0,.481-.023.72-.023v.174h-.086c-.247,0-.521.047-.521.742v2.66a3.762,3.762,0,0,0,.033.59h-.223L125.2,38.873v2.406c0,.51.1.686.551.686h.1v.174c-.253,0-.5-.023-.756-.023s-.531.023-.794.023v-.174h.081c.4,0,.526-.278.526-.742V38.762a.526.526,0,0,0-.533-.527H124.3V38.06c.22,0,.449.023.671.023.175,0,.345-.023.521-.023Z" transform="translate(-19.088 -5.845)" fill="#fff"/>
      <path id="路径_62513" data-name="路径 62513" d="M130.792,41.277a2.4,2.4,0,0,0-.127.455c0,.176.246.207.438.207h.064v.174c-.234-.013-.473-.024-.708-.024-.211,0-.418.011-.63.024v-.174h.035a.532.532,0,0,0,.509-.381l.936-2.684a4.973,4.973,0,0,0,.213-.723,3.1,3.1,0,0,0,.532-.252.127.127,0,0,1,.05-.012.039.039,0,0,1,.039.017c.016.047.035.1.054.147l1.072,3.056c.069.206.141.42.217.6a.374.374,0,0,0,.387.235h.036v.174c-.264-.013-.527-.024-.808-.024s-.578.011-.877.024v-.174h.064c.135,0,.363-.026.363-.171a2.024,2.024,0,0,0-.114-.42l-.229-.678H130.98Zm.853-2.589h-.011l-.542,1.654h1.093Z" transform="translate(-19.937 -5.818)" fill="#fff"/>
      <path id="路径_62514" data-name="路径 62514" d="M135.028,38.32c-.437,0-.455.1-.544.531h-.176c.025-.164.053-.328.071-.5a3.2,3.2,0,0,0,.035-.5h.14c.048.174.2.168.351.168h3.017c.157,0,.3-.006.314-.181l.141.022c-.023.159-.047.317-.065.475s-.012.315-.012.474l-.174.063c-.013-.218-.043-.559-.433-.559h-.958v3.109c0,.45.2.5.484.5h.112v.174c-.229,0-.637-.024-.952-.024-.351,0-.762.024-.99.024v-.174h.113c.319,0,.484-.031.484-.493V38.32Z" transform="translate(-20.625 -5.812)" fill="#fff"/>
      <path id="路径_62515" data-name="路径 62515" d="M139.3,41.965h.085c.209,0,.43-.03.43-.335V38.567c0-.3-.221-.333-.43-.333H139.3V38.06c.229,0,.581.023.867.023s.642-.023.917-.023v.174H141c-.21,0-.433.03-.433.333V41.63c0,.3.223.335.433.335h.081v.174c-.281,0-.631-.023-.923-.023s-.631.023-.86.023Z" transform="translate(-21.392 -5.845)" fill="#fff"/>
      <path id="路径_62516" data-name="路径 62516" d="M143.944,37.955a2.05,2.05,0,0,1,2.238,2.018,2.143,2.143,0,0,1-2.21,2.238,2.065,2.065,0,0,1-2.186-2.1,2.127,2.127,0,0,1,2.158-2.158m.088,4c1.134,0,1.335-1,1.335-1.853s-.465-1.887-1.436-1.887c-1.022,0-1.326.913-1.326,1.695,0,1.046.482,2.045,1.427,2.045" transform="translate(-21.774 -5.829)" fill="#fff"/>
      <path id="路径_62517" data-name="路径 62517" d="M151.153,40.989l.012-.012V38.784a.482.482,0,0,0-.508-.549h-.128V38.06c.273,0,.542.023.817.023.242,0,.479-.023.721-.023v.174h-.089c-.246,0-.521.047-.521.742v2.66a3.979,3.979,0,0,0,.033.59h-.222l-3.008-3.354v2.406c0,.51.1.686.549.686h.1v.174c-.251,0-.5-.023-.754-.023s-.53.023-.795.023v-.174h.083c.4,0,.526-.278.526-.742V38.762a.526.526,0,0,0-.533-.527h-.075V38.06c.222,0,.45.023.672.023.176,0,.345-.023.521-.023Z" transform="translate(-22.629 -5.845)" fill="#fff"/>
      <path id="路径_62518" data-name="路径 62518" d="M153.855,41.277a2.238,2.238,0,0,0-.128.455c0,.176.244.207.436.207h.066v.174c-.234-.013-.476-.024-.708-.024-.211,0-.421.011-.632.024v-.174h.037a.529.529,0,0,0,.506-.381l.935-2.684a4.793,4.793,0,0,0,.218-.723,3.167,3.167,0,0,0,.531-.252.118.118,0,0,1,.045-.012.047.047,0,0,1,.045.017c.015.047.034.1.049.147l1.078,3.056c.07.206.139.42.217.6a.372.372,0,0,0,.384.235h.036v.174c-.265-.013-.526-.024-.808-.024s-.578.011-.877.024v-.174h.065c.133,0,.363-.026.363-.171a1.948,1.948,0,0,0-.119-.42l-.228-.678h-1.326Zm.852-2.589H154.7l-.542,1.654h1.091Z" transform="translate(-23.479 -5.818)" fill="#fff"/>
      <path id="路径_62519" data-name="路径 62519" d="M159.22,41.566c0,.233.164.3.349.327a3.949,3.949,0,0,0,.772-.012.838.838,0,0,0,.563-.315,1.356,1.356,0,0,0,.18-.419h.17c-.066.331-.145.658-.216.992-.515,0-1.027-.024-1.545-.024s-1.029.024-1.543.024v-.174h.083c.211,0,.438-.03.438-.394v-3c0-.3-.227-.333-.438-.333h-.083v-.174c.31,0,.614.024.924.024s.591-.024.888-.024v.174h-.145c-.223,0-.4.008-.4.317Z" transform="translate(-24.256 -5.845)" fill="#fff"/>
      <path id="路径_62520" data-name="路径 62520" d="M166.312,38.908a.755.755,0,0,0-.691-.743.663.663,0,0,0-.718.737c0,.97,1.754.678,1.754,2.081a1.271,1.271,0,0,1-1.417,1.226,2.091,2.091,0,0,1-.926-.261c-.03-.3-.071-.59-.1-.89l.164-.036c.069.5.349.929.906.929a.664.664,0,0,0,.719-.665c0-1.036-1.718-.713-1.718-2.123a1.175,1.175,0,0,1,1.29-1.21c.165,0,.663.064.841.089a6.815,6.815,0,0,0,.058.835Z" transform="translate(-25.218 -5.829)" fill="#fff"/>
      <path id="路径_62521" data-name="路径 62521" d="M168.192,38.32c-.438,0-.457.1-.545.531h-.176c.025-.164.054-.328.07-.5a3.193,3.193,0,0,0,.035-.5h.141c.047.174.193.168.352.168h3.014c.16,0,.306-.006.317-.181l.138.022c-.022.159-.046.317-.062.475s-.014.315-.014.474l-.174.063c-.011-.218-.042-.559-.433-.559H169.9v3.109c0,.45.2.5.485.5h.111v.174c-.23,0-.64-.024-.954-.024-.351,0-.76.024-.988.024v-.174h.11c.322,0,.487-.031.487-.493V38.32Z" transform="translate(-25.718 -5.812)" fill="#fff"/>
      <path id="路径_62522" data-name="路径 62522" d="M173.013,38.661c0-.419-.218-.427-.451-.427h-.069V38.06c.251,0,.56.023.929.023.352,0,.642-.023.878-.023v.174h-.069c-.234,0-.469.008-.469.427V40.68c0,.742.276,1.255,1.111,1.255.771,0,1.111-.491,1.111-1.281V38.661c0-.419-.221-.427-.422-.427h-.117V38.06c.234,0,.475.023.708.023s.45-.023.678-.023v.174h-.124c-.159,0-.374.008-.374.427v1.866c0,1.321-.7,1.7-1.573,1.7-1.122,0-1.747-.409-1.747-1.455Z" transform="translate(-26.489 -5.845)" fill="#fff"/>
      <path id="路径_62523" data-name="路径 62523" d="M177.872,41.965h.081c.209,0,.433-.03.433-.336V38.567c0-.3-.224-.333-.433-.333h-.081V38.06c.174,0,.559.023.934.023s.69-.023.943-.023a2.05,2.05,0,1,1,.15,4.079c-.258-.013-.666-.023-1.063-.023s-.813.023-.964.023Zm1.26-.5c0,.411.188.462.609.462a1.561,1.561,0,0,0,1.509-1.73c0-1.543-.784-1.929-1.719-1.929-.135,0-.267.017-.4.03Z" transform="translate(-27.315 -5.845)" fill="#fff"/>
      <path id="路径_62524" data-name="路径 62524" d="M183.208,41.965h.081c.212,0,.433-.03.433-.335V38.567c0-.3-.221-.333-.433-.333h-.081V38.06c.228,0,.578.023.867.023s.642-.023.917-.023v.174h-.081c-.212,0-.433.03-.433.333V41.63c0,.3.222.335.433.335h.081v.174c-.281,0-.632-.023-.923-.023s-.632.023-.86.023Z" transform="translate(-28.135 -5.845)" fill="#fff"/>
      <path id="路径_62525" data-name="路径 62525" d="M185.543,41.965h.081c.21,0,.431-.03.431-.335V38.567c0-.3-.221-.333-.431-.333h-.081V38.06c.355,0,.963.023,1.457.023s1.1-.023,1.495-.023c-.013.251-.007.636.01.893L188.33,39c-.029-.378-.1-.683-.714-.683H186.8v1.532h.7c.354,0,.428-.2.46-.514h.179c-.012.225-.019.456-.019.681s.007.445.019.667l-.179.036c-.032-.35-.049-.578-.456-.578h-.7V41.5c0,.378.343.378.716.378.7,0,1.01-.047,1.185-.712l.166.041c-.078.31-.147.62-.2.929-.373,0-1.043-.023-1.572-.023s-1.22.023-1.552.023Z" transform="translate(-28.493 -5.845)" fill="#fff"/>
      <path id="路径_62526" data-name="路径 62526" d="M192.012,38.908a.753.753,0,0,0-.691-.743.665.665,0,0,0-.72.737c0,.97,1.755.678,1.755,2.081a1.269,1.269,0,0,1-1.414,1.226,2.082,2.082,0,0,1-.928-.261c-.033-.3-.074-.59-.1-.89l.163-.036c.072.5.35.929.906.929a.664.664,0,0,0,.719-.665c0-1.036-1.72-.713-1.72-2.123a1.178,1.178,0,0,1,1.293-1.21c.164,0,.66.064.843.089a6.653,6.653,0,0,0,.058.835Z" transform="translate(-29.164 -5.829)" fill="#fff"/>
      <path id="路径_62527" data-name="路径 62527" d="M195.647,38.661c0-.419-.217-.427-.45-.427h-.069V38.06c.25,0,.558.023.928.023.352,0,.643-.023.878-.023v.174h-.069c-.237,0-.471.008-.471.427V40.68c0,.742.277,1.255,1.113,1.255.769,0,1.109-.491,1.109-1.281V38.661c0-.419-.223-.427-.421-.427h-.116V38.06c.234,0,.473.023.706.023s.451-.023.68-.023v.174h-.124c-.159,0-.376.008-.376.427v1.866c0,1.321-.7,1.7-1.57,1.7-1.122,0-1.747-.409-1.747-1.455Z" transform="translate(-29.965 -5.845)" fill="#fff"/>
      <path id="路径_62528" data-name="路径 62528" d="M204.261,40.989l.014-.012V38.784a.482.482,0,0,0-.509-.549h-.13V38.06c.274,0,.542.023.819.023.24,0,.481-.023.719-.023v.174h-.086c-.246,0-.521.047-.521.742v2.66a3.858,3.858,0,0,0,.036.59h-.22l-3.011-3.354v2.406c0,.51.1.686.548.686h.1v.174c-.25,0-.5-.023-.753-.023s-.531.023-.8.023v-.174h.081c.4,0,.528-.278.528-.742V38.762a.526.526,0,0,0-.534-.527h-.075V38.06c.223,0,.453.023.674.023.175,0,.343-.023.52-.023Z" transform="translate(-30.785 -5.845)" fill="#fff"/>
      <path id="路径_62529" data-name="路径 62529" d="M206.223,41.965h.083c.208,0,.428-.03.428-.335V38.567c0-.3-.22-.333-.428-.333h-.083V38.06c.229,0,.576.023.863.023s.644-.023.918-.023v.174h-.08c-.212,0-.434.03-.434.333V41.63c0,.3.223.335.434.335H208v.174c-.282,0-.631-.023-.922-.023s-.631.023-.859.023Z" transform="translate(-31.669 -5.845)" fill="#fff"/>
      <path id="路径_62530" data-name="路径 62530" d="M210.24,38.234H210.1c-.217,0-.3.089-.3.163a.83.83,0,0,0,.052.189l1,2.6h.008l.93-2.432a.913.913,0,0,0,.079-.327c0-.171-.175-.195-.376-.195h-.1V38.06c.2,0,.427.023.68.023.179,0,.367-.023.536-.023v.174h-.057a.3.3,0,0,0-.31.2c-.048.082-.9,2.241-1.281,3.211-.076.193-.173.386-.242.578h-.214l-1.486-3.659a.434.434,0,0,0-.491-.333h-.057V38.06c.3,0,.6.023.9.023s.7-.023.867-.023Z" transform="translate(-32.015 -5.845)" fill="#fff"/>
      <path id="路径_62531" data-name="路径 62531" d="M213.541,41.965h.083c.209,0,.431-.03.431-.335V38.567c0-.3-.222-.333-.431-.333h-.083V38.06c.355,0,.964.023,1.454.023s1.1-.023,1.5-.023c-.008.251,0,.636.014.893l-.176.047c-.028-.378-.1-.683-.712-.683H214.8v1.532h.695c.35,0,.428-.2.463-.514h.175c-.013.225-.018.456-.018.681s.005.445.018.667l-.175.036c-.035-.35-.055-.578-.456-.578h-.7V41.5c0,.378.339.378.713.378.7,0,1.012-.047,1.187-.712l.165.041c-.077.31-.147.62-.2.929-.373,0-1.044-.023-1.572-.023s-1.22.023-1.554.023Z" transform="translate(-32.793 -5.845)" fill="#fff"/>
      <path id="路径_62532" data-name="路径 62532" d="M218.308,38.679c0-.427-.234-.444-.416-.444h-.1V38.06c.186,0,.547.023.906.023s.632-.023.94-.023c.738,0,1.39.2,1.39,1.028a1.1,1.1,0,0,1-.81,1.028l1,1.5a.655.655,0,0,0,.567.354v.174c-.193,0-.38-.023-.576-.023s-.366.023-.547.023a15.891,15.891,0,0,1-1.215-1.9h-.387V41.5c0,.449.212.467.477.467h.107v.174c-.334,0-.674-.023-1.006-.023-.281,0-.555.023-.846.023v-.174h.1c.218,0,.416-.1.416-.317Zm.747,1.356h.286c.585,0,.9-.221.9-.912a.8.8,0,0,0-.852-.853c-.177,0-.251.018-.333.022Z" transform="translate(-33.445 -5.845)" fill="#fff"/>
      <path id="路径_62533" data-name="路径 62533" d="M225,38.908a.755.755,0,0,0-.689-.743.664.664,0,0,0-.721.737c0,.97,1.754.678,1.754,2.081a1.269,1.269,0,0,1-1.415,1.226,2.1,2.1,0,0,1-.929-.261c-.029-.3-.07-.59-.1-.89l.163-.036a.939.939,0,0,0,.907.929.664.664,0,0,0,.719-.665c0-1.036-1.718-.713-1.718-2.123a1.176,1.176,0,0,1,1.292-1.21c.163,0,.659.064.841.089a6.651,6.651,0,0,0,.058.835Z" transform="translate(-34.229 -5.829)" fill="#fff"/>
      <path id="路径_62534" data-name="路径 62534" d="M226.16,41.965h.083c.212,0,.433-.03.433-.335V38.567c0-.3-.221-.333-.433-.333h-.083V38.06c.229,0,.581.023.864.023s.646-.023.92-.023v.174h-.081c-.209,0-.433.03-.433.333V41.63c0,.3.224.335.433.335h.081v.174c-.281,0-.632-.023-.923-.023s-.632.023-.862.023Z" transform="translate(-34.731 -5.845)" fill="#fff"/>
      <path id="路径_62535" data-name="路径 62535" d="M229.173,38.32c-.437,0-.455.1-.543.531h-.175c.025-.164.054-.328.07-.5a3.3,3.3,0,0,0,.036-.5h.141c.045.174.192.168.349.168h3.018c.158,0,.3-.006.315-.181l.141.022c-.024.159-.047.317-.064.475s-.012.315-.012.474l-.175.063c-.013-.218-.041-.559-.433-.559h-.958v3.109c0,.45.2.5.484.5h.112v.174c-.228,0-.637-.024-.952-.024-.35,0-.76.024-.989.024v-.174h.113c.321,0,.486-.031.486-.493V38.32Z" transform="translate(-35.083 -5.812)" fill="#fff"/>
      <path id="路径_62536" data-name="路径 62536" d="M235.223,40.234l-1.171-1.6c-.177-.245-.286-.4-.562-.4h-.054V38.06c.312,0,.6.023.916.023s.583-.023.864-.023v.174h-.078c-.156,0-.3.041-.3.136,0,.063.069.138.1.192l.879,1.238.727-1.045c.106-.17.18-.268.18-.38s-.251-.141-.333-.141h-.1V38.06c.223,0,.444.023.667.023.187,0,.373-.023.556-.023v.174a.6.6,0,0,0-.456.269l-1.089,1.538v1.4c0,.5.177.528.487.528h.11v.174c-.344,0-.694-.023-.952-.023-.295,0-.643.023-.989.023v-.174h.112c.344,0,.487-.1.487-.481Z" transform="translate(-35.848 -5.845)" fill="#fff"/>
      <path id="路径_62537" data-name="路径 62537" d="M78.22,11.6c-.431.039-.852.318-1.253.272a6.846,6.846,0,0,1-1.37-.326s-.948-.24-1.079-.27c-.007.132-.022.265-.019.4.05,1.9.15,3.5.132,5.4a8.789,8.789,0,0,1-.5,2.206c-.334,1.039.312,1.107,1.048,1.1,1.49-.013,2.989-.129,4.47-.013.933.071,2.041.1,2.577,1.1a2.2,2.2,0,0,1,.1,1.343c-.148.807-2.244,1.987-3.057,1.9a10.594,10.594,0,0,0-2.467-.026c-1.653.208-3.286.565-4.941.778-.845.107-1.717-.013-2.57.07-1.11.112-2.2.406-3.313.469a5.824,5.824,0,0,1-2.617-.264c-1.343-.6-1.866-3.247-.895-4.031a2.676,2.676,0,0,1,1.338-.263c1.289-.128,2.581-.232,3.872-.332a1.153,1.153,0,0,0,1.192-1.137c.113-1.937.1-3.881.247-5.815.117-1.543.44-3.07.612-4.611.121-1.12.065-2.26.245-3.367a1.928,1.928,0,0,1,.89-1.2c.89-.471,1.45.1,1.826.877a14.039,14.039,0,0,0,.942,1.917A1.319,1.319,0,0,0,74.68,8.1c1.571-.157,3.13-.449,4.705-.562.483-.034,1.316.216,1.432.538a2.775,2.775,0,0,1-.014,2.063A3.073,3.073,0,0,1,78.22,11.6" transform="translate(-9.516 -0.737)" fill="#fff" fill-rule="evenodd"/>
      <path id="路径_62538" data-name="路径 62538" d="M94.813,22.574a9.735,9.735,0,0,1-.06-1.459c.028-.284.284-.537.387-.824a.494.494,0,0,0-.081-.421c-.056-.071-.256-.04-.386-.025-.179.019-.377.135-.529.089-1.006-.3-1.1.505-1.359,1.1-.34.774-.675,1.554-1.016,2.33-.28.639-.554,1.279-.852,1.909a2.52,2.52,0,0,1-2.691,1.44,1.127,1.127,0,0,1-.686-.864c.087-1.224.339-2.433.492-3.652.124-.98.169-1.974.289-2.955a5.176,5.176,0,0,1,.364-1.767c.322-.608.849-.335,1.193.091.518.646,1.116,1.3.73,2.235-.113.272-.369.493-.458.769a8.252,8.252,0,0,0-.322,1.463c-.019.146.124.433.233.451a.576.576,0,0,0,.5-.2c.653-1.291,1.275-2.593,1.892-3.9.21-.45.283-1.151.588-1.371.107-.076.352-.021.531.013.9.183,1.815.439,2.605-.244.218-.19.261-.569.41-.847.539-1,1.063-2.019,1.643-3,.532-.892,1.148-1.733,1.682-2.623a.461.461,0,0,0,.095-.449c-.019-.143-.29-.284-.455-.32-.945-.214-1.462.32-1.973,1a.966.966,0,0,1-.874.289c-.274-.12-.634-.587-.58-.813A21.063,21.063,0,0,1,97.26,6.449c.157-.35.972-.537,1.376-.631a.632.632,0,0,1,.5.336,1.455,1.455,0,0,0,2.243,1.094,1.291,1.291,0,0,1,1.691.41,1.359,1.359,0,0,1-.091,1.827c-.783.929-1.4,1.994-2.129,2.972-.561.753-1.219,1.436-1.765,2.2a11.864,11.864,0,0,0-1,1.786c-.153.324-.412.852-.25,1.015a2.5,2.5,0,0,0,1.785.587c.222,0,.461-.842.548-1.323a22.955,22.955,0,0,1,.482-3.177c.146-.438.954-.793,1.518-.911a9.926,9.926,0,0,1,2.7-.161,1.486,1.486,0,0,1,1.343,1.463,6,6,0,0,1-.68,3.6c-.047.092.088.37.206.442a9.822,9.822,0,0,1,1.678.945,1.288,1.288,0,0,1,.476,1.17c-.112.333-.458.265-.669.317a2.619,2.619,0,0,1-.879.007,21.322,21.322,0,0,1-2.274-.532.238.238,0,0,0-.255.1c-.267.706-.737,1.383-.073,2.165a1.168,1.168,0,0,1,.157,1.072,2.491,2.491,0,0,1-1.223,1.108A43.155,43.155,0,0,1,98.4,25.1a5.624,5.624,0,0,1-2.031.109c-.423-.1-.792-.654-1.061-1.083a4.661,4.661,0,0,1-.491-1.553m8.242-4.668c.639.04.785,0,.921-.246a5.737,5.737,0,0,0,.464-2.754c0-.308-.553-.7-.89-.791a.758.758,0,0,0-.664.214,6.2,6.2,0,0,0-.945,1.71,6.881,6.881,0,0,0-.439,1.288c-.031.121-.01.353.168.411a9.38,9.38,0,0,0,1.386.168m-.824,1.851c-.069-.241-.272-.514-.493-.525-.261-.013-.631.3-.895.6s-.41.708-.664,1.017c-.521.633-1.084,1.227-1.618,1.844a.248.248,0,0,0-.017.27c.055.058.167.023.243,0,.455-.14.9-.318,1.364-.428a3.521,3.521,0,0,0,2.079-2.776m-5.59.9a2.545,2.545,0,0,0,.074.88c.088.176.462.4.569.339a3.123,3.123,0,0,0,.8-.716,10.588,10.588,0,0,0,.94-1.221.358.358,0,0,0-.09-.429,2.442,2.442,0,0,0-1.264-.35c-.3.022-.756.462-.951.742-.141.2-.061.56-.077.755" transform="translate(-13.443 -0.893)" fill="#fff" fill-rule="evenodd"/>
      <path id="路径_62539" data-name="路径 62539" d="M149.956,23.056A49.1,49.1,0,0,0,155,22.615a.951.951,0,0,1,.736.573.936.936,0,0,1-.425.819,3.321,3.321,0,0,1-1.014.182c-.052.008-.755-.067-.972.083-1.526,1.045-3.025.642-4.57.463-1.045-.124-2.071-.413-3.108-.617-.092-.019-.256.014-.291.076-.045.078.02.213.018.323a5.372,5.372,0,0,1-.136,1.755c-.124.3-.738.242-1.071.142a1.441,1.441,0,0,1-.8-.732c-.68-1.614.04-3.216.179-4.815.152-1.754.548-3.488.83-5.231.142-.866.223-1.749.438-2.6a1.027,1.027,0,0,1,.762-.6,18.171,18.171,0,0,1,3.36.229c.415.079.783.638,1.076,1.047a14.238,14.238,0,0,1,.973,1.662c.275.521.758,1.076.715,1.584a5.916,5.916,0,0,1-.854,1.855c-.131.267-.256.539-.387.808a8.494,8.494,0,0,0,1.121.19c.623.021,1.281-.056,1.314-.858a5.928,5.928,0,0,0-.263-1.556c-.269-1.175-.559-2.344-.846-3.513a6.68,6.68,0,0,1-.369-1.6.763.763,0,0,1,.627-.715,1.371,1.371,0,0,1,.715.237c.932.768.39,1.7.642,2.511a16.182,16.182,0,0,0,.9,2.408.722.722,0,0,0,1.087-.072,8.16,8.16,0,0,0,.656-2.446c.048-.637-.363-1.307-.339-1.952.016-.4.172-1.043.724-1.182.261-.064.819.45,1,.8.24.448.075,1.219.394,1.5,1,.868.207,1.633.033,2.432a13.239,13.239,0,0,1-.554,2.04,8.058,8.058,0,0,1-.543,1.486,9.446,9.446,0,0,1-.949,1.175,9.275,9.275,0,0,1-1.646,1.166c-.349.191-.891,0-1.341.041-1.539.145-3.108-.08-4.545.486-.122.046-.427.165-.413.324.02.137.233.173.359.2a9.919,9.919,0,0,0,1.739.333M148.537,19.6a1.744,1.744,0,0,0,.913-.945,2.429,2.429,0,0,0-.012-1.66,8.414,8.414,0,0,0-1.626-1.961,2.334,2.334,0,0,0-.9-.517c-.506,0-.851.736-.936,1.127a26.664,26.664,0,0,0-.457,3.271.481.481,0,0,0,.257.422,5.188,5.188,0,0,0,2.757.262" transform="translate(-21.971 -1.701)" fill="#fff" fill-rule="evenodd"/>
      <path id="路径_62540" data-name="路径 62540" d="M225.71,11.218a12.778,12.778,0,0,1,.519-3.108.679.679,0,0,1,.488-.491c.286-.029.56.344.586.564.125,1.077.72,2.12.245,3.26a.6.6,0,0,0,.386.594c.438.1.9-.344,1.084-.686a5.715,5.715,0,0,0,.76-2.239,9.433,9.433,0,0,0-.5-2.141c-.054-.283-.034-.772.13-.873,1.07-.637,1.923-.134,2.136,1.21a5.8,5.8,0,0,0,.178,1.31,3.1,3.1,0,0,0,.809.94,2.047,2.047,0,0,0,.645.35,7.807,7.807,0,0,0,.759.236,4.283,4.283,0,0,0,.1-1.2c-.177-.859-.529-1.685-.666-2.546-.132-.841.547-1.1,1.551-.663a1.492,1.492,0,0,1,.937,1.477c.014.89,0,1.78,0,2.67a14.5,14.5,0,0,1-.009,2.433,4.875,4.875,0,0,1-2.1,2.912c-.857.68-1.855,1.2-2.631,1.952-.538.527-.695,1.911-1.072,2.234-.643.553-.615,1.425-.734,2.265-.025.18.519.447.807.668.383.293,1.013.459,1.174.676.506.7-.146,1.767-.55,2-1.4.809-1.181-.378-1.692,1.013a9.765,9.765,0,0,1-2.132,2.078c-.589.449-3.063-.014-3.586-.571-.123-.129-.177-.53-.095-.6a1.747,1.747,0,0,1,.852-.392,3.081,3.081,0,0,0,2.373-1.238c.084-.119-.047-.406-.1-.607-.234-.8-.857-.8-1.521-.743a8.394,8.394,0,0,1-1.535.064.507.507,0,0,1-.488-.426,1,1,0,0,1,.325-.639,13.093,13.093,0,0,1,2.561-1.317,1.561,1.561,0,0,0,1.235-1.762,2.8,2.8,0,0,1,.985-1.779,3.535,3.535,0,0,0,.919-1.368c.093-.171.215-.493.063-.656-.209-.223-.621-.037-.916.019-.336.063-.646.244-.983.328a25.538,25.538,0,0,1-3.066.7c-.429.052-1.357-.218-1.351-.5,0-.026-.011-.487.192-.569a44.392,44.392,0,0,1,4.96-1.316,10.883,10.883,0,0,0,1.13-.346c.152-.059.4-.163.4-.339-.011-.345-.513-.486-.815-.634a.683.683,0,0,0-1.048.412c-.091.218-.239.559-.489.56-.3,0-.515-.405-.6-.665a9.378,9.378,0,0,1-.61-2.511m6.218,2.66c.609-.128.789-.72,1.027-1.178a1.023,1.023,0,0,0-.1-.845,8.85,8.85,0,0,0-.924-1.128,2.385,2.385,0,0,0-.269-.234,2.186,2.186,0,0,0-.214.331,6.768,6.768,0,0,0-.48,1.221,2.818,2.818,0,0,0-.058,1.381.9.9,0,0,0,1.017.453" transform="translate(-34.183 -0.849)" fill="#fff" fill-rule="evenodd"/>
      <path id="路径_62541" data-name="路径 62541" d="M177.751,16.745c-.365-1.329,1.133-1.513,1.827-1.781a5.039,5.039,0,0,0,2.252-1.87,4.245,4.245,0,0,0,.707-3.49c-.041-.229-.559-.394-.874-.55s-.875-.033-.989-.392c-.128-.4.276-.757.54-1,1.291-1.17,4.556-1.141,5.447-.074a1.64,1.64,0,0,1,.267,1.238c-.216,1-.582,1.961-.845,2.95a.91.91,0,0,0,.589.289c1-.189,1.5.332,1.9,1.152.386.79-.088,1.313-.455,1.883-.071.112-.232.169-.3.284-.245.444-.894,1.087.415.778.21-.048.645.383.785.682a.848.848,0,0,1-.353.77c-1.282.475-2.591.891-3.9,1.279-1.241.362-2.5.66-3.745,1a27.235,27.235,0,0,1-2.744.752,1.017,1.017,0,0,1-.944-.68c-.046-.347.372-.656.653-.8a7.371,7.371,0,0,1,2.5-1.086,3.82,3.82,0,0,0,2.413-1.225,13.678,13.678,0,0,0,1.437-1.813.478.478,0,0,0-.041-.538c-.144-.117-.43-.025-.547.076-1.04.918-2.079,1.838-3.068,2.808a2.3,2.3,0,0,1-2.2.587c-.323-.077-.6-.759-.73-1.234" transform="translate(-27.232 -1.043)" fill="#fff" fill-rule="evenodd"/>
      <path id="路径_62542" data-name="路径 62542" d="M195.054,24.563c.967.2,1.734-.749,2.5-1.354a10.156,10.156,0,0,0,1.594-1.92,1.489,1.489,0,0,0-.694-2.037c-.765-.344-1.5-.649-1.182-1.75a3.2,3.2,0,0,1,2.557-1.787c.454.033,1.084.067,1.345-.192a2.555,2.555,0,0,0,.527-1.463c.143-1.421.2-2.85.284-4.279.046-.789.62-1.144,1.3-.746,1.37.81,1.237.8.8,2.717a21.77,21.77,0,0,0-.383,2.539c-.012.112.261.383.423.338.474-.135.771-.643,1.211-.835a1.843,1.843,0,0,1,1.185-.047c1.232.374,1.37,1.519,1.564,2.538a1.546,1.546,0,0,1-.9,1.684c-.391.2-.9.19-1.268.413-.708.428-1.322,1.006-2.036,1.423-.464.264-1.051.3-1.542.537a1.615,1.615,0,0,0-.581.668c-.648,1.116-1.234,2.266-1.91,3.363a15.934,15.934,0,0,1-1.371,1.808,3.484,3.484,0,0,1-3.013.329c-.347-.2-.819-.187-1.163-.394a1.776,1.776,0,0,1-.648-.775.691.691,0,0,1,.752-.779,4.822,4.822,0,0,1,.654,0" transform="translate(-29.738 -1.362)" fill="#fff" fill-rule="evenodd"/>
      <path id="路径_62543" data-name="路径 62543" d="M155.916,24.571c1.051.382,1.457.049,2.483-.03a4.566,4.566,0,0,0,1.568-.572c.2-.21.283-.135.409-.7.091-.875.146-1.756.208-2.636.074-1.052.161-2.1.194-3.153.046-1.452.133-2.911.039-4.356a23.406,23.406,0,0,0-.637-3.66c-.046-.187-.548-.393-.83-.374a30.892,30.892,0,0,0-4.424.41,2.665,2.665,0,0,1-2.6-.46,1.5,1.5,0,0,1-.6-1.034c.035-.558.712-.444,1.087-.484,1.568-.169,3.147-.247,4.715-.405a6.114,6.114,0,0,0,1.643-.39,2.511,2.511,0,0,1,2.491.082c.791.537.772,1.416.772,2.284,0,.944.118,1.884.165,2.83.045.924.066,1.85.094,2.78.033,1.006.093,2.011.08,3.018-.016,1.038-.116,2.071-.164,3.109a16.193,16.193,0,0,1-.116,2.636,11.517,11.517,0,0,1-1.045,2.819,3.184,3.184,0,0,1-1.289,1.315,3.207,3.207,0,0,1-1.6.083c-1.419-.115-2.883-.211-3.92-1.366A1.781,1.781,0,0,1,154.207,25c.049-.281.613-.823,1.014-.686.08.027.611.225.695.254" transform="translate(-23.3 -0.989)" fill="#fff" fill-rule="evenodd"/>
      <path id="路径_62544" data-name="路径 62544" d="M116.491,15.507c-.108-1.49.725-2.588,1.39-3.77a7.372,7.372,0,0,0,.672-1.948c.163-.713.209-1.449.319-2.174a1.583,1.583,0,0,1,.163-.4c.45-.724,1.82-.546,3.2.036a1.5,1.5,0,0,1,.477,1.483,29.218,29.218,0,0,1-1.518,3,12.175,12.175,0,0,0-.635,1.7.466.466,0,0,0,.207.386,2.325,2.325,0,0,1,1.379,3,11.494,11.494,0,0,1-3.525,5.84c-.763.753-1.415,1.618-2.152,2.4-.191.2-.594.45-.751.375-.42-.2-.953-.506-1.089-.892a15.786,15.786,0,0,1-.408-2.361c-.052-.273-.262-.518-.316-.792-.073-.384-.379-.906-.092-1.173.256-.243.816-.047,1.025.148a2.2,2.2,0,0,0,3.746-.72c.095-.208.391-.339.615-.471.953-.567.853-1.565.934-2.44A.784.784,0,0,0,119,15.875c-.29.15-.524.493-.813.535a2.325,2.325,0,0,1-1.477-.1c-.19-.19-.151-.524-.223-.8" transform="translate(-17.46 -1.035)" fill="#fff" fill-rule="evenodd"/>
      <path id="路径_62545" data-name="路径 62545" d="M129.147,23.477c-.085-1.294-.035-2.594.006-3.891.069-2.3.256-4.6.245-6.905a10.019,10.019,0,0,0-.639-2.9,1.705,1.705,0,0,1,1.2-2.368c.482-.158,1.2.458,1.5.771a4.249,4.249,0,0,1,.835,1.128,3.107,3.107,0,0,1,.213,2.166c-.1,1.58-.208,3.164-.389,4.737-.147,1.278-.445,2.534-.6,3.811-.131,1.107-.13,2.232-.24,3.341a6.806,6.806,0,0,1-.383,1.781.531.531,0,0,1-.355.236,1.405,1.405,0,0,1-1.152-.322c-.287-.437-.2-.857-.243-1.588" transform="translate(-19.753 -1.135)" fill="#fff" fill-rule="evenodd"/>
      <path id="路径_62546" data-name="路径 62546" d="M187.02,25.58c-.334.9.115,1.24.335,2.184.254,1.1-.577,1.632-1.424,1.732a2.752,2.752,0,0,1-1.669-.264c-.65-.412-.295-.94.13-1.425.171-.2.385-.666.175-.893-.169-.18-.493.067-.741.079a3.337,3.337,0,0,1-1.2.011c-.826-.3-1.034-.126-1.329.881a1.651,1.651,0,0,1-.939,1.048c-.71.147-1.127-.334-1.1-1.111.017-.5-.013-1,0-1.495a4.852,4.852,0,0,1,.1-.887c.208-.942.846-.916,1.629-.778a9.062,9.062,0,0,0,2.573.16c.5-.059.918-.644,1.434-.826a2.7,2.7,0,0,1,1.48-.087.857.857,0,0,1,.676.742,1.612,1.612,0,0,1-.13.929" transform="translate(-27.527 -3.662)" fill="#fff" fill-rule="evenodd"/>
      <path id="路径_62547" data-name="路径 62547" d="M169.827,21.647c-.433-.042-.615.272-.782.417a1.075,1.075,0,0,1-1.534.02,1.753,1.753,0,0,1-.259-1.237c.116-1.329,1.278-1.134,2.133-1.4.408-.124.791-.51,1.171-.488a2.715,2.715,0,0,1,2.642,2.477,29.984,29.984,0,0,1,.189,4.551,11.554,11.554,0,0,1-.372,2.523.946.946,0,0,1-1.351.745c-.256-.118-.369-.753-.374-1.155-.021-1.248.082-2.5.052-3.746a3.878,3.878,0,0,0-.36-1.726,1.759,1.759,0,0,0-1.155-.983" transform="translate(-25.683 -2.912)" fill="#fff" fill-rule="evenodd"/>
      <path id="路径_62548" data-name="路径 62548" d="M138.728,21.048c-.864.088-1.1-.707-1.6-1.234a7.075,7.075,0,0,0-1.687-.959c-.2-.114-.512-.256-.533-.416-.026-.217.08-.6.289-.671a13.3,13.3,0,0,1,3.205-.577c.919-.073,2.457,1.427,2.528,2.3.089,1.033-.628,1.554-2.2,1.554" transform="translate(-20.717 -2.64)" fill="#fff" fill-rule="evenodd"/>
      <path id="路径_62549" data-name="路径 62549" d="M212.017,26.625c0,.66-.693,1.038-1.114,1.23a2.319,2.319,0,0,1-1.389-.094,12.248,12.248,0,0,1-1.632-.626c-.547-.233-.672-.57-.308-1.107a.969.969,0,0,0,.022-.791c-.4-.929-.155-1.284.841-1.37a3.246,3.246,0,0,1,2.733,1.385c.2.216.853.7.847,1.375" transform="translate(-31.845 -3.663)" fill="#fff" fill-rule="evenodd"/>
      <path id="路径_62550" data-name="路径 62550" d="M223.233,14.288a24.887,24.887,0,0,1,.334-5.283c.023-.245.324-.643.645-.62.221.019.365.28.383.47.163,1.619.35,3.237.384,4.86.007.471-.449.967-.743,1.419a.562.562,0,0,1-.522.028,1.953,1.953,0,0,1-.481-.874" transform="translate(-34.271 -1.288)" fill="#fff" fill-rule="evenodd"/>
      <path id="路径_62551" data-name="路径 62551" d="M174.568,9.608a1.387,1.387,0,0,1,1.225.9c.168.7-.293,1.09-1.021,1.3-.668.192-1.245.678-1.905.911-.319.109-.965.047-1.064-.144-.165-.321-.174-1.009.041-1.182.82-.656,1.575-1.805,2.725-1.782" transform="translate(-26.364 -1.475)" fill="#fff" fill-rule="evenodd"/>
      <path id="路径_62552" data-name="路径 62552" d="M220.073,20.134a4.554,4.554,0,0,1-.45,1.364c-.1.221-.471.515-.623.473-.511-.139-1.058-.659-1.08-1.032a9.664,9.664,0,0,1,.416-2.374,1.488,1.488,0,0,1,.229-.685c.2-.215.47-.51.781-.487.358.025.346.538.416.833a5.62,5.62,0,0,1,.311,1.908" transform="translate(-33.465 -2.671)" fill="#fff" fill-rule="evenodd"/>
      <path id="路径_62553" data-name="路径 62553" d="M93.266,11.34a1.548,1.548,0,0,1-1.486,1.386c-.9.015-1.59-.858-1.59-2.049,0-.552.19-.918.879-.924,1.192-.013,2.334.671,2.2,1.587" transform="translate(-13.85 -1.498)" fill="#fff" fill-rule="evenodd"/>
    </g>
  </g>
</svg>
